<svg width="35" height="35" viewBox="0 0 35 35" fill="none" xmlns="http://www.w3.org/2000/svg">
<g clip-path="url(#clip0_11_26)">
<path fill-rule="evenodd" clip-rule="evenodd" d="M34.9222 1.50039C35.0017 1.30163 35.0212 1.08389 34.9782 0.874156C34.9352 0.664427 34.8315 0.471936 34.6801 0.320546C34.5287 0.169157 34.3363 0.0655277 34.1265 0.0225052C33.9168 -0.0205174 33.699 -0.00104098 33.5003 0.0785199L33.2925 0.161645L1.67872 12.8054L1.67653 12.8076L0.687783 13.2013C0.500511 13.276 0.337532 13.401 0.216848 13.5626C0.0961641 13.7241 0.0224721 13.9158 0.00391212 14.1166C-0.0146478 14.3173 0.0226467 14.5193 0.111676 14.7002C0.200705 14.8811 0.338005 15.0339 0.508408 15.1416L1.40528 15.7104L1.40747 15.7148L11.389 22.0651L12.334 22.6666L12.9356 23.6116L19.2859 33.5932L19.2903 33.5976L19.859 34.4945C19.9671 34.6642 20.12 34.8008 20.3008 34.8893C20.4815 34.9778 20.6832 35.0146 20.8836 34.9959C21.0839 34.9771 21.2753 34.9034 21.4364 34.7829C21.5976 34.6624 21.7225 34.4998 21.7972 34.3129L22.1931 33.322L34.839 1.70602L34.9222 1.49821V1.50039ZM30.9125 5.63477L31.9428 3.05789L29.3659 4.08821L12.9728 20.4813L13.7122 20.9516C13.8478 21.0378 13.9629 21.1528 14.049 21.2885L14.5193 22.0279L30.9125 5.63477Z" fill="#14FF72"/>
</g>
<defs>
<clipPath id="clip0_11_26">
<rect width="35" height="35" fill="white"/>
</clipPath>
</defs>
</svg>
